<?xml version="1.0" encoding="UTF-8" standalone="no"?><!-- Generator: Gravit.io --><svg xmlns="http://www.w3.org/2000/svg" xmlns:xlink="http://www.w3.org/1999/xlink" style="isolation:isolate" viewBox="556 381 20 19.707" width="20pt" height="19.707pt"><defs><clipPath id="_clipPath_6JakLjxDFmFCmzWpGpm51Jo5FZiWMxu2"><rect x="556" y="381" width="20" height="19.707"/></clipPath></defs><g clip-path="url(#_clipPath_6JakLjxDFmFCmzWpGpm51Jo5FZiWMxu2)"><path d=" M 570.895 385.226 L 573.708 382.414 L 572.294 381 L 569.448 383.846 C 569.217 383.679 568.976 383.528 568.725 383.392 C 567.022 382.481 564.978 382.481 563.275 383.392 C 563.025 383.524 562.787 383.679 562.553 383.845 L 559.707 381 L 558.293 382.414 L 561.106 385.226 C 560.52 385.972 560.064 386.81 559.756 387.707 L 556 387.707 L 556 389.707 L 558.307 389.707 C 558.242 390.202 558.2 390.704 558.2 391.207 C 558.2 391.714 558.242 392.22 558.307 392.718 L 556 392.718 L 556 394.718 L 558.753 394.718 C 558.766 394.757 558.774 394.798 558.787 394.836 C 558.975 395.391 559.208 395.929 559.482 396.436 C 559.526 396.517 559.577 396.591 559.623 396.67 L 557.293 399 L 558.707 400.414 L 560.817 398.303 C 561.405 398.96 562.106 399.509 562.885 399.922 C 563.364 400.175 563.867 400.371 564.381 400.502 C 565.443 400.775 566.556 400.775 567.618 400.503 C 568.138 400.369 568.64 400.175 569.114 399.923 C 569.579 399.677 570.028 399.373 570.447 399.019 C 570.705 398.801 570.947 398.557 571.181 398.303 L 573.292 400.414 L 574.706 399 L 572.376 396.67 C 572.423 396.59 572.474 396.515 572.518 396.434 C 572.791 395.929 573.025 395.391 573.212 394.835 C 573.225 394.796 573.233 394.756 573.246 394.717 L 576 394.717 L 576 392.717 L 573.692 392.717 C 573.757 392.218 573.799 391.713 573.799 391.206 C 573.799 390.703 573.757 390.201 573.693 389.706 L 576 389.706 L 576 387.707 L 572.244 387.707 C 571.936 386.811 571.48 385.972 570.895 385.226 Z  M 562.681 386.455 C 563.126 385.897 563.641 385.462 564.209 385.161 C 565.327 384.558 566.672 384.558 567.79 385.161 C 568.384 385.482 568.905 385.923 569.32 386.456 C 569.619 386.829 569.86 387.256 570.073 387.707 L 561.927 387.707 C 562.141 387.256 562.381 386.828 562.681 386.455 Z  M 571.8 391.207 C 571.8 391.729 571.758 392.251 571.674 392.76 C 571.595 393.25 571.475 393.733 571.319 394.196 C 571.169 394.64 570.982 395.071 570.76 395.484 C 570.549 395.875 570.303 396.246 570.027 396.594 C 569.76 396.927 569.467 397.23 569.158 397.492 C 568.848 397.753 568.519 397.976 568.179 398.156 C 567.839 398.336 567.484 398.473 567.122 398.566 C 567.082 398.576 567.04 398.58 567 398.589 L 567 392.707 L 565 392.707 L 565 398.588 C 564.96 398.579 564.918 398.575 564.878 398.565 C 564.517 398.472 564.161 398.335 563.821 398.155 C 563.481 397.975 563.152 397.752 562.843 397.491 C 562.524 397.22 562.233 396.919 561.972 396.592 C 561.696 396.245 561.451 395.874 561.241 395.484 C 561.018 395.071 560.831 394.64 560.681 394.195 C 560.523 393.726 560.404 393.245 560.325 392.757 C 560.161 391.747 560.159 390.718 560.319 389.707 L 571.68 389.707 C 571.759 390.198 571.8 390.702 571.8 391.207 Z " fill="rgb(255,255,255)"/></g></svg>