<?xml version="1.0" encoding="UTF-8" standalone="no"?><!-- Generator: Gravit.io --><svg xmlns="http://www.w3.org/2000/svg" xmlns:xlink="http://www.w3.org/1999/xlink" style="isolation:isolate" viewBox="586 352 18 18" width="18pt" height="18pt"><defs><clipPath id="_clipPath_hHJ4yz2hbb2nd4OKxT9WWgeWzvi0SMrb"><rect x="586" y="352" width="18" height="18"/></clipPath></defs><g clip-path="url(#_clipPath_hHJ4yz2hbb2nd4OKxT9WWgeWzvi0SMrb)"><path d=" M 587 362 L 593 362 C 593.552 362 594 361.552 594 361 L 594 353 C 594 352.448 593.552 352 593 352 L 587 352 C 586.448 352 586 352.448 586 353 L 586 361 C 586 361.552 586.448 362 587 362 Z  M 586 369 C 586 369.552 586.448 370 587 370 L 593 370 C 593.552 370 594 369.552 594 369 L 594 365 C 594 364.448 593.552 364 593 364 L 587 364 C 586.448 364 586 364.448 586 365 L 586 369 Z  M 596 369 C 596 369.552 596.448 370 597 370 L 603 370 C 603.552 370 604 369.552 604 369 L 604 362 C 604 361.448 603.552 361 603 361 L 597 361 C 596.448 361 596 361.448 596 362 L 596 369 Z  M 597 359 L 603 359 C 603.552 359 604 358.552 604 358 L 604 353 C 604 352.448 603.552 352 603 352 L 597 352 C 596.448 352 596 352.448 596 353 L 596 358 C 596 358.552 596.448 359 597 359 Z " fill="rgb(255,255,255)"/></g></svg>